<svg width="124" height="125" viewBox="0 0 124 125" fill="none" xmlns="http://www.w3.org/2000/svg">
<path d="M63.5914 80.4337L63.9841 74.9364L68.7736 72.2032C73.3722 69.5381 77.5975 66.2754 81.3389 62.5002C94.9789 48.855 99.1432 32.8125 94.1264 27.7905C89.1044 22.7789 73.0619 26.9329 59.4167 40.578C55.4901 44.5047 52.1989 48.793 49.7137 53.1434L46.9754 57.9329L41.4832 58.3255C36.9761 58.6416 32.6992 60.4359 29.3157 63.4302C35.7738 66.2721 41.6454 70.2933 46.6292 75.2877C51.6926 80.351 55.6812 86.2255 58.4867 92.6012C61.481 89.2177 63.2753 84.9408 63.5914 80.4337ZM48.2309 95.0502C47.1918 96.463 46.0467 97.7947 44.8054 99.0337C38.7501 105.089 29.6154 106.913 17.4014 104.51C15.0041 92.3015 16.8331 83.1669 22.8781 77.1115C24.1594 75.8405 25.4924 74.6935 26.8667 73.686C22.6311 71.6169 18.1048 70.2056 13.4437 69.501C14.9443 64.7907 17.5544 60.5097 21.0542 57.0184C26.316 51.7435 33.3073 48.5488 40.7392 48.0232C43.8588 42.625 47.681 37.6647 52.1059 33.2724C69.2592 16.119 91.3416 10.3995 101.432 20.4849C111.517 30.5754 105.793 52.6577 88.6446 69.8059C84.2522 74.2307 79.2919 78.053 73.8937 81.1725C73.3681 88.6045 70.1734 95.5958 64.8986 100.858C61.4101 104.362 57.1283 106.975 52.4159 108.473C51.7113 103.812 50.3001 99.2858 48.2309 95.0502V95.0502ZM39.3184 82.5985C38.4864 81.7646 37.5484 81.0437 36.5284 80.4544C34.2964 81.2294 31.6717 82.9344 29.2692 85.3317C28.1377 86.4684 26.7531 90.2865 26.7376 95.1742C31.6252 95.1587 35.4589 93.7585 36.5801 92.6425C38.9826 90.2349 40.6876 87.6154 41.4574 85.3834C40.8697 84.3637 40.1505 83.4256 39.3184 82.5934V82.5985ZM79.5047 42.4019C79.0001 41.9279 78.5958 41.3574 78.3159 40.7242C78.036 40.091 77.8863 39.408 77.8755 38.7158C77.8648 38.0235 77.9933 37.3362 78.2533 36.6946C78.5134 36.053 78.8998 35.4702 79.3895 34.9809C79.8792 34.4915 80.4622 34.1055 81.104 33.8459C81.7458 33.5863 82.4332 33.4583 83.1255 33.4696C83.8177 33.4808 84.5006 33.631 85.1336 33.9114C85.7666 34.1917 86.3368 34.5964 86.8104 35.1014C87.7013 36.0839 88.1802 37.3714 88.148 38.6972C88.1159 40.0231 87.575 41.2858 86.6376 42.224C85.7001 43.1621 84.4377 43.7038 83.1119 43.7369C81.786 43.7701 80.4982 43.292 79.5151 42.4019H79.5047Z" fill="#C1C7CD"/>
</svg>
