<svg width="124" height="125" viewBox="0 0 124 125" fill="none" xmlns="http://www.w3.org/2000/svg">
<path d="M63.5913 80.4337L63.984 74.9364L68.7735 72.2032C73.3722 69.5381 77.5974 66.2754 81.3388 62.5002C94.9788 48.855 99.1432 32.8125 94.1263 27.7905C89.1043 22.7789 73.0618 26.9329 59.4167 40.578C55.49 44.5047 52.1988 48.793 49.7137 53.1434L46.9753 57.9329L41.4832 58.3255C36.9761 58.6416 32.6992 60.4359 29.3157 63.4302C35.7738 66.2721 41.6453 70.2933 46.6292 75.2877C51.6925 80.351 55.6812 86.2255 58.4867 92.6012C61.4809 89.2177 63.2752 84.9408 63.5913 80.4337ZM48.2308 95.0502C47.1918 96.463 46.0466 97.7947 44.8053 99.0337C38.75 105.089 29.6153 106.913 17.4013 104.51C15.004 92.3015 16.833 83.1669 22.878 77.1115C24.1593 75.8405 25.4923 74.6935 26.8667 73.686C22.6311 71.6169 18.1047 70.2056 13.4437 69.501C14.9443 64.7907 17.5543 60.5097 21.0542 57.0184C26.3159 51.7435 33.3072 48.5488 40.7392 48.0232C43.8587 42.625 47.681 37.6647 52.1058 33.2724C69.2592 16.119 91.3415 10.3995 101.432 20.4849C111.517 30.5754 105.793 52.6577 88.6445 69.8059C84.2521 74.2307 79.2919 78.053 73.8937 81.1725C73.3681 88.6045 70.1733 95.5958 64.8985 100.858C61.4101 104.362 57.1283 106.975 52.4158 108.473C51.7112 103.812 50.3 99.2858 48.2308 95.0502V95.0502ZM39.3183 82.5985C38.4864 81.7646 37.5483 81.0437 36.5283 80.4544C34.2963 81.2294 31.6717 82.9344 29.2692 85.3317C28.1377 86.4684 26.753 90.2865 26.7375 95.1742C31.6252 95.1587 35.4588 93.7585 36.58 92.6425C38.9825 90.2349 40.6875 87.6154 41.4573 85.3834C40.8696 84.3637 40.1505 83.4256 39.3183 82.5934V82.5985ZM79.5047 42.4019C79 41.9279 78.5957 41.3574 78.3158 40.7242C78.036 40.091 77.8862 39.408 77.8755 38.7158C77.8647 38.0235 77.9932 37.3362 78.2533 36.6946C78.5133 36.053 78.8997 35.4702 79.3894 34.9809C79.8791 34.4915 80.4622 34.1055 81.104 33.8459C81.7458 33.5863 82.4332 33.4583 83.1254 33.4696C83.8176 33.4808 84.5005 33.631 85.1335 33.9114C85.7665 34.1917 86.3368 34.5964 86.8103 35.1014C87.7012 36.0839 88.1801 37.3714 88.148 38.6972C88.1158 40.0231 87.575 41.2858 86.6375 42.224C85.7 43.1621 84.4377 43.7038 83.1118 43.7369C81.786 43.7701 80.4981 43.292 79.515 42.4019H79.5047Z" fill="#C1C7CD"/>
</svg>
